<?xml version="1.0" encoding="UTF-8"?>
<svg id="_Слой_1" data-name="Слой 1" xmlns="http://www.w3.org/2000/svg" xmlns:xlink="http://www.w3.org/1999/xlink" viewBox="0 0 2647.31 3687.34">
  <defs>
    <style>
      .cls-1 {
        fill: none;
      }

      .cls-2 {
        fill: url(#_Безымянный_градиент);
      }

      .cls-3 {
        clip-path: url(#clippath);
      }
    </style>
    <clipPath id="clippath">
      <path class="cls-1" d="M2367.25,1787.88c0,14.18,1.22,25.68,3.55,34.6,4.77,15.16,11.37,27.27,19.69,36.44,8.44,9.17,17.61,16.14,27.63,21.03,10.03,5.01,20.18,8.31,30.45,10.15,10.27,1.83,19.81,2.69,28.61,2.69,5.5.49,10.39.73,14.67.73h41.21v-216.43h-3.55c-3.79,0-8.56-.12-13.94-.37-5.5-.24-11.74-.37-18.71-.37-7.34,0-15.04.12-23.11.37-7.95.24-16.14.61-24.45,1.1-24.82,1.47-44.51,11.25-58.94,29.35-14.43,18.22-22.13,42.8-23.11,73.85v6.85ZM2184.57,2158.38v-19.07c22.87,0,41.57-4.77,56-14.31,14.43-9.54,28.73-22.13,42.8-37.78,6.97-7.46,15.53-17.61,25.8-30.69,10.27-13.21,20.05-26.04,29.47-38.64,11.13-14.92,22.38-30.81,33.63-47.44,5.5-6.85,11.49-14.18,18.1-22.01,6.6-7.7,13.33-14.31,20.18-19.81-15.77-2.32-30.32-8.07-43.65-17-13.45-8.93-25.07-19.93-34.85-33.01-9.78-13.08-17.49-27.76-23.11-44.02-5.62-16.14-8.44-32.65-8.44-49.28,0-43.53,12.96-77.64,38.76-102.34,25.92-24.82,61.5-37.17,106.87-37.17l199.19-2.45v19.07h-15.04c-11,0-20.05,3.91-27.15,11.62-7.09,7.83-11.13,17-12.11,27.76v397.76c.98,10.76,5.01,19.93,12.11,27.51,7.09,7.7,16.14,11.49,27.15,11.49h15.04v19.07h-167.27v-19.07h15.16c11,0,20.18-3.79,27.51-11.37,7.34-7.7,11.37-16.87,12.35-27.51v-187.08c-19.56,0-32.16,1.35-37.78,3.91-5.62,2.69-10.76,6.11-15.41,10.52-4.65,4.4-9.05,9.42-13.21,15.04-4.16,5.62-11.86,16.39-23.11,32.28-11.25,15.9-22.25,31.18-33.01,45.73-5.87,8.31-11.74,16.51-17.36,24.46-5.62,7.95-10.76,15.41-15.41,22.25-4.65,6.97-8.56,12.72-11.98,17.36-3.3,4.65-5.62,7.7-6.73,9.05-5.99,7.46-12.72,14.92-20.3,22.38-7.46,7.58-16.51,14.43-27.02,20.79-10.52,6.36-22.5,11.62-35.83,15.77-13.33,4.16-28.61,6.24-45.85,6.24h-45.49ZM1616.97,2156.18v-19.07h15.28c11.13,0,20.3-3.79,27.51-11.49,7.21-7.58,11.25-16.75,12.23-27.51v-397.76c-.98-10.76-5.01-19.93-12.23-27.76-7.21-7.7-16.38-11.62-27.51-11.62h-15.28v-19.07h168.74v19.07h-15.41c-11.13,0-20.42,3.91-27.88,11.62-7.34,7.83-11.49,17.12-12.47,27.88v185h280.99v-185c-.49-10.27-4.52-19.2-12.11-26.78-7.7-7.46-16.87-11.25-27.51-11.25h-15.41v-19.07h168.01v19.07h-14.67c-11.13,0-20.42,3.79-27.63,11.62-7.34,7.7-11.49,17-12.72,27.76v396.91c.98,10.76,5.14,20.05,12.47,27.63,7.46,7.7,16.75,11.49,27.88,11.49h14.67v19.07l-168.01-.73v-19.07h15.41c10.64,0,19.81-3.79,27.51-11.49,7.58-7.58,11.62-16.51,12.11-26.78v-179.62h-280.99v178.89c.98,10.76,5.14,19.93,12.47,27.51,7.46,7.7,16.75,11.49,27.88,11.49h15.41v19.07h-168.74ZM934.31,2156.91v-19.07h14.18c4.89,0,9.66-.98,14.18-2.81h.73c2.93-1.96,5.62-4.28,8.07-6.85l1.47-1.47c1.83-1.96,3.42-3.79,4.65-5.75.98-2.32,1.96-4.89,2.93-7.58l.73-2.08c.49-1.96.73-3.79.73-5.75v-411.58c-.98-8.31-4.52-15.53-10.52-21.52-1.96-1.47-3.67-2.81-5.14-4.28-1.96-.98-4.28-1.96-6.97-2.81-1.35-.49-2.57-.98-3.55-1.47h-1.47c-.98-.49-1.96-.73-2.93-.73h-17.12v-19.08h153.33v19.08h-14.18c-8.93,0-16.75,3.06-23.35,9.29l-2.81,3.18c-4.4,5.99-6.85,12.59-7.34,19.69v397.76c.49,1.96.73,3.79.73,5.75.49.98.73,1.96.73,2.81,1.47,3.42,3.55,6.85,6.48,10.39.49.49.98.98,1.47,1.47,4.77,4.77,10.15,7.95,16.14,9.66h119.46c1.47-.49,2.69-.98,3.67-1.47,4.77-1.35,9.17-4.16,13.21-8.19.98-1.47,1.96-2.57,2.93-3.55.98-.98,1.83-1.96,2.57-2.93.49-1.35.86-2.57,1.34-3.55.49-1.47.98-2.69,1.47-3.91l.73-1.47v-402.78c-.49-8.8-4.04-16.38-10.76-22.87-6.11-5.5-12.84-8.56-20.3-9.29h-17.36v-19.08h155.53l-2.2,19.08h-17.12c-.98.49-2.32.73-4.04.73-2.81.98-5.5,1.83-7.95,2.81-.98.98-2.2,1.96-3.67,2.93-.49.49-1.22.86-2.2,1.35l-1.83,1.47-2.81,3.18c-.49.98-.98,1.71-1.47,2.2-2.45,3.3-4.16,6.85-5.14,10.76,0,.49-.24.86-.73,1.35v407.42c1.47,6.48,4.28,11.86,8.68,16.14,6.48,6.48,13.82,9.66,22.25,9.66h109.8c8.44,0,15.77-3.3,22.13-9.78,6.36-6.6,9.78-14.55,10.27-23.84v-394.22c-.49-8.8-3.91-16.38-10.27-22.62-6.24-6.36-13.82-9.54-22.74-9.54h-13.94v-19.08h153.33l-2.2,19.08h-13.21c-8.93,0-16.51,3.18-22.74,9.54-6.36,6.36-9.78,13.94-10.27,22.74v411.58c.49,8.31,3.91,15.53,10.27,21.64,6.24,6.11,13.82,9.17,22.74,9.17h13.94v19.07h-612.6ZM555.13,1947.82h159.32l-78.01-206.89-81.31,206.89ZM374.53,2156.18v-19.07h12.59c9.78,0,20.05-3.18,30.81-9.66,10.64-6.48,19.56-17,26.41-31.55h-.73l162.75-385.05c4.77-10.76,9.17-21.03,13.21-30.81,3.3-8.44,6.36-17,9.17-25.8,2.69-8.8,4.04-15.9,4.04-21.15h16.14l192.34,462.08v-.73c6.97,15.04,15.77,25.8,26.53,32.28,10.76,6.48,21.03,9.66,30.81,9.66h12.23v19.08h-173.75v-19.08h12.47c6.48,0,12.11-1.96,16.87-5.87,4.77-3.91,7.21-9.9,7.21-17.73,0-4.28-.73-8.8-2.2-13.33l-44.75-117.87h-184.15l-46.95,118.61v-.73c-1.35,5.5-2.08,9.9-2.08,13.33,0,7.83,2.57,13.94,7.7,18.1,5.14,4.16,10.88,6.24,17.36,6.24h12.47v19.07h-156.51ZM0,1662.43v-19.07h302.26l45.36,127.66h-19.69c-5.5-13.7-11.62-26.29-18.46-37.78-6.73-11.62-14.92-21.52-24.46-29.84-9.54-8.19-20.79-14.67-33.75-19.32-12.84-4.65-28.37-6.97-46.59-6.97h-81.31c-5.99,6.97-9.17,14.92-9.66,23.97v422.09h99.65c28.49,0,50.26-9.42,65.42-28.25,15.16-18.83,23.23-44.14,24.21-75.93v-5.75c0-13.57-1.22-25.31-3.55-35.34v.61c-5.5-16.14-12.72-29.22-21.76-39.13-8.93-9.9-18.83-17.61-29.59-23.23-10.76-5.62-21.52-9.29-32.53-11.13-11-1.83-20.91-2.69-29.84-2.69s-16.51.73-21.52,2.2c-2.81.37-5.5,1.22-7.83,2.45v-10.39c12.59-7.09,23.72-12.11,33.38-15.28,9.54-3.06,20.18-4.65,31.79-4.65,19.2,0,37.42,3.3,55.02,9.9,17.49,6.48,33.01,14.92,46.46,25.19,13.45,10.27,24.33,24.21,32.77,41.82,8.31,17.61,12.47,37.29,12.47,58.94,0,45-13.57,80.21-40.84,105.89-27.15,25.68-64.81,38.52-113.1,38.52H1.1v-19.07h15.28c10.27,0,19.2-3.42,26.66-10.39,7.58-6.97,11.74-15.28,12.72-25.19v-401.8c-.98-8.8-4.04-16.63-9.29-23.35-.98-.98-2.08-1.96-3.18-3.18-3.79-3.79-7.95-6.73-12.23-8.68-3.3-1.35-7.21-2.32-11.74-2.81H0Z"/>
    </clipPath>
    <linearGradient id="_Безымянный_градиент" data-name="Безымянный градиент" x1="2645.31" y1="2158.38" x2="0" y2="1633.08" gradientUnits="userSpaceOnUse">
      <stop offset="0" stop-color="#c98f00"/>
      <stop offset=".02" stop-color="#ba7f00"/>
      <stop offset=".04" stop-color="#ab6e00"/>
      <stop offset=".05" stop-color="#905900"/>
      <stop offset=".12" stop-color="#b2862c"/>
      <stop offset=".25" stop-color="#d5b559"/>
      <stop offset=".5" stop-color="#fff5ab"/>
      <stop offset=".68" stop-color="#ead582"/>
      <stop offset=".75" stop-color="#d5b559"/>
      <stop offset=".87" stop-color="#b3872d"/>
      <stop offset=".94" stop-color="#905900"/>
      <stop offset=".95" stop-color="#ab6e00"/>
      <stop offset="1" stop-color="#c98f00"/>
    </linearGradient>
  </defs>
  <g class="cls-3">
    <rect class="cls-2" y="1633.08" width="2645.31" height="525.3"/>
  </g>
</svg>